<?xml version="1.0" encoding="iso-8859-1"?>
<!-- Uploaded to: SVG Repo, www.svgrepo.com, Generator: SVG Repo Mixer Tools -->
<svg height="800px" width="800px" version="1.1" id="Layer_1" xmlns="http://www.w3.org/2000/svg" xmlns:xlink="http://www.w3.org/1999/xlink" 
	 viewBox="0 0 511.999 511.999" xml:space="preserve">
<path style="fill:#AFD0CE;" d="M316.31,127.66c0-21.793-11.564-40.874-28.887-51.468c-4.843-2.961-5.976-9.555-2.329-13.907
	c6.077-7.251,9.494-16.807,8.744-27.169c-1.35-18.654-16.488-33.736-35.145-35.024c-22.172-1.53-40.634,16.002-40.634,37.848
	c0,9.246,3.31,17.717,8.806,24.299c3.67,4.392,2.423,11.051-2.451,14.054c-17.233,10.613-28.726,29.644-28.726,51.369"/>
<path style="fill:#99B9B5;" d="M241.926,62.239c-2.656-6.581-4.254-15.052-4.254-24.299c0-20.953,8.206-37.927,18.328-37.929
	c-20.953,0.001-37.941,16.976-37.941,37.929c0,9.246,3.31,17.717,8.806,24.299c3.67,4.393,2.423,11.051-2.451,14.054
	c-17.233,10.613-28.726,29.644-28.726,51.369h31.177c0-21.725,5.552-40.756,13.877-51.369
	C243.096,73.29,243.698,66.631,241.926,62.239z"/>
<path style="fill:#EC589B;" d="M341.731,194.267H170.268v-48.225c0-10.816,8.769-19.585,19.585-19.585h132.293
	c10.816,0,19.585,8.769,19.585,19.585V194.267z"/>
<path style="fill:#D3468D;" d="M241.185,126.456h-51.332c-10.816,0-19.585,8.769-19.585,19.585v48.225H221.6v-48.225
	C221.6,135.225,230.367,126.456,241.185,126.456z"/>
<path style="fill:#C3F6F9;" d="M344.389,511.999H167.61c-15.398,0-27.879-12.482-27.879-27.879V220.942
	c0-15.398,12.482-27.879,27.879-27.879h176.779c15.398,0,27.879,12.482,27.879,27.879V484.12
	C372.269,499.517,359.787,511.999,344.389,511.999z"/>
<g>
	<path style="fill:#ACE3E5;" d="M190.313,484.12V220.942c0-15.398,12.482-27.879,27.879-27.879H167.61
		c-15.398,0-27.879,12.482-27.879,27.879V484.12c0,15.398,12.482,27.879,27.879,27.879h50.583
		C202.795,511.999,190.313,499.517,190.313,484.12z"/>
	<path style="fill:#ACE3E5;" d="M256,434.326c-1.41,0-2.821-0.33-4.112-0.99c-36.138-18.475-78.338-53.407-78.338-91.054
		c0-31.46,22.349-57.055,49.819-57.055c13.203,0,24.991,7.031,32.631,17.977c7.639-10.946,19.427-17.977,32.629-17.977
		c27.471,0,49.819,25.595,49.819,57.055c0,37.647-42.199,72.579-78.337,91.054C258.82,433.996,257.41,434.326,256,434.326z
		 M223.37,303.293c-17.509,0-31.754,17.491-31.754,38.99c0,19.301,19.948,48.969,64.384,72.815
		c44.436-23.845,64.383-53.514,64.383-72.815c0-21.499-14.245-38.99-31.754-38.99c-13.012,0-23.597,13.182-23.597,29.385
		c0,4.988-4.043,9.033-9.033,9.033s-9.033-4.044-9.033-9.033C246.967,316.474,236.381,303.293,223.37,303.293z"/>
</g>
</svg>