<?xml version="1.0" encoding="iso-8859-1"?>
<!-- Uploaded to: SVG Repo, www.svgrepo.com, Generator: SVG Repo Mixer Tools -->
<svg height="800px" width="800px" version="1.1" id="Layer_1" xmlns="http://www.w3.org/2000/svg" xmlns:xlink="http://www.w3.org/1999/xlink" 
	 viewBox="0 0 512 512" xml:space="preserve">
<g transform="translate(1 1)">
	<g>
		<path style="fill:#FFE100;" d="M118.467,125.72c0,5.12-3.413,8.533-8.533,8.533s-8.533-3.413-8.533-8.533s3.413-8.533,8.533-8.533
			S118.467,120.6,118.467,125.72"/>
		<path style="fill:#FFE100;" d="M50.2,40.387c0,5.12-3.413,8.533-8.533,8.533s-8.533-3.413-8.533-8.533s3.413-8.533,8.533-8.533
			S50.2,35.267,50.2,40.387"/>
		<path style="fill:#FFE100;" d="M357.4,134.253c-5.12,0-8.533-3.413-8.533-8.533V91.587c0-5.12,3.413-8.533,8.533-8.533
			s8.533,3.413,8.533,8.533v34.133C365.933,130.84,362.52,134.253,357.4,134.253z"/>
		<path style="fill:#FFE100;" d="M374.467,117.187h-34.133c-5.12,0-8.533-3.413-8.533-8.533c0-5.12,3.413-8.533,8.533-8.533h34.133
			c5.12,0,8.533,3.413,8.533,8.533C383,113.773,379.587,117.187,374.467,117.187z"/>
		<polygon style="fill:#FFE100;" points="442.733,6.253 468.333,31.853 442.733,57.453 417.133,31.853 		"/>
		<path style="fill:#FFE100;" d="M178.2,31.853c0,18.773-15.36,34.133-34.133,34.133c18.773,0,34.133,15.36,34.133,34.133
			c0-18.773,15.36-34.133,34.133-34.133C193.56,65.987,178.2,50.627,178.2,31.853"/>
	</g>
	<path style="fill:#00DA6C;" d="M75.8,270.787H24.6c-9.387,0-17.067-7.68-17.067-17.067s7.68-17.067,17.067-17.067h51.2
		c9.387,0,17.067,7.68,17.067,17.067S85.187,270.787,75.8,270.787"/>
	<path style="fill:#FFFFFF;" d="M33.133,253.72c0-9.387,7.68-17.067,17.067-17.067H24.6c-9.387,0-17.067,7.68-17.067,17.067
		s7.68,17.067,17.067,17.067h25.6C40.813,270.787,33.133,263.107,33.133,253.72"/>
	<path style="fill:#00DA6C;" d="M485.4,270.787h-51.2c-9.387,0-17.067-7.68-17.067-17.067s7.68-17.067,17.067-17.067h51.2
		c9.387,0,17.067,7.68,17.067,17.067S494.787,270.787,485.4,270.787"/>
	<path style="fill:#FFE100;" d="M435.053,236.653H485.4v-17.067c0-18.773-15.36-34.133-34.133-34.133H58.733
		c-18.773,0-34.133,15.36-34.133,34.133v17.067h50.347c8.533,0,16.213,5.973,17.92,14.507c1.707,11.093-6.827,19.627-17.067,19.627
		H24.6c0,127.147,103.253,230.4,230.4,230.4s230.4-103.253,230.4-230.4h-51.2c-10.24,0-18.773-9.387-17.067-19.627
		C418.84,242.627,426.52,236.653,435.053,236.653"/>
	<path style="fill:#00AD55;" d="M476.867,253.72c0-9.387-7.68-17.067-17.067-17.067h25.6c9.387,0,17.067,7.68,17.067,17.067
		s-7.68,17.067-17.067,17.067h-25.6C469.187,270.787,476.867,263.107,476.867,253.72"/>
	<g>
		<path style="fill:#FDCC00;" d="M480.28,318.573c-11.947-3.413-24.747-5.12-37.547-5.12c-80.213,0-145.067,64.853-145.067,145.067
			c0,12.8,1.707,25.6,5.12,37.547C391.533,477.293,461.507,407.32,480.28,318.573"/>
		<path style="fill:#FDCC00;" d="M67.267,313.453c-12.8,0-25.6,1.707-37.547,5.12c18.773,88.747,88.747,158.72,177.493,177.493
			c3.413-11.947,5.12-24.747,5.12-37.547C212.333,378.307,147.48,313.453,67.267,313.453"/>
	</g>
	<g>
		<path style="fill:#FFFFFF;" d="M267.8,501.187c-4.267,0-8.533,0-12.8,0c-127.147,0-230.4-103.253-230.4-230.4h25.6
			C50.2,393.667,146.627,494.36,267.8,501.187"/>
		<path style="fill:#FFFFFF;" d="M58.733,185.453h25.6c-18.773,0-34.133,15.36-34.133,34.133v17.067H24.6v-17.067
			C24.6,200.813,39.96,185.453,58.733,185.453"/>
	</g>
	<g>
		<path style="fill:#FFA800;" d="M242.2,501.187c4.267,0,8.533,0,12.8,0c127.147,0,230.4-103.253,230.4-230.4h-25.6
			C459.8,393.667,363.373,494.36,242.2,501.187"/>
		<path style="fill:#FFA800;" d="M451.267,185.453h-25.6c18.773,0,34.133,15.36,34.133,34.133v17.067h25.6v-17.067
			C485.4,200.813,470.04,185.453,451.267,185.453"/>
	</g>
	<path d="M302.787,504.6c-3.413,0-6.827-2.56-8.533-5.973c-3.413-13.653-5.12-27.307-5.12-40.107c0-84.48,69.12-153.6,153.6-153.6
		c12.8,0,26.453,1.707,40.107,5.12c4.267,0.853,6.827,5.973,5.973,10.24c-19.627,92.16-92.16,164.693-184.32,184.32
		C303.64,504.6,303.64,504.6,302.787,504.6z M442.733,321.987c-75.093,0-136.533,61.44-136.533,136.533
		c0,9.387,0.853,17.92,2.56,27.307c79.36-19.627,141.653-81.92,161.28-161.28C460.653,322.84,452.12,321.987,442.733,321.987z"/>
	<path d="M207.213,504.6c-0.853,0-0.853,0-1.707,0c-92.16-19.627-164.693-92.16-184.32-184.32c-0.853-4.267,1.707-8.533,5.973-10.24
		c13.653-3.413,27.307-5.12,40.107-5.12c84.48,0,153.6,69.12,153.6,153.6c0,12.8-1.707,26.453-5.12,40.107
		C214.04,502.04,210.627,504.6,207.213,504.6z M39.96,324.547c19.627,79.36,81.92,141.653,161.28,161.28
		c1.707-9.387,2.56-18.773,2.56-27.307c0-75.093-61.44-136.533-136.533-136.533C57.88,321.987,49.347,322.84,39.96,324.547z"/>
	<path d="M75.8,279.32H24.6c-14.507,0-25.6-11.093-25.6-25.6c0-14.507,11.093-25.6,25.6-25.6h51.2c14.507,0,25.6,11.093,25.6,25.6
		C101.4,268.227,90.307,279.32,75.8,279.32z M24.6,245.187c-5.12,0-8.533,3.413-8.533,8.533s3.413,8.533,8.533,8.533h51.2
		c5.12,0,8.533-3.413,8.533-8.533s-3.413-8.533-8.533-8.533H24.6z"/>
	<path d="M485.4,279.32h-51.2c-14.507,0-25.6-11.093-25.6-25.6c0-14.507,11.093-25.6,25.6-25.6h51.2c14.507,0,25.6,11.093,25.6,25.6
		C511,268.227,499.907,279.32,485.4,279.32z M434.2,245.187c-5.12,0-8.533,3.413-8.533,8.533s3.413,8.533,8.533,8.533h51.2
		c5.12,0,8.533-3.413,8.533-8.533s-3.413-8.533-8.533-8.533H434.2z"/>
	<path d="M255,509.72c-131.413,0-238.933-107.52-238.933-238.933c0-5.12,3.413-8.533,8.533-8.533h51.2
		c2.56,0,5.12-0.853,6.827-3.413c1.707-1.707,1.707-4.267,1.707-6.827c-0.853-3.413-5.12-6.827-9.387-6.827H24.6
		c-5.12,0-8.533-3.413-8.533-8.533v-17.067c0-23.893,18.773-42.667,42.667-42.667h392.533c23.893,0,42.667,18.773,42.667,42.667
		v17.067c0,5.12-3.413,8.533-8.533,8.533h-50.347c-4.267,0-8.533,3.413-9.387,6.827c0,2.56,0,5.12,1.707,6.827
		c1.707,1.707,4.267,3.413,6.827,3.413h51.2c5.12,0,8.533,3.413,8.533,8.533C493.933,402.2,386.413,509.72,255,509.72z
		 M33.133,279.32C37.4,397.933,135.533,492.653,255,492.653s217.6-94.72,221.867-213.333H434.2c-7.68,0-14.507-3.413-19.627-9.387
		c-5.12-5.973-6.827-13.653-5.973-20.48c1.707-11.947,13.653-21.333,26.453-21.333h41.813v-8.533c0-14.507-11.093-25.6-25.6-25.6
		H58.733c-14.507,0-25.6,11.093-25.6,25.6v8.533h41.813c12.8,0,23.893,9.387,26.453,21.333c0.853,7.68-0.853,15.36-5.973,20.48
		S83.48,279.32,75.8,279.32H33.133z"/>
	<path d="M448.707,63.427H436.76l-25.6-25.6V25.88l25.6-25.6h11.947l25.6,25.6v11.947L448.707,63.427z M429.08,31.853l13.653,13.653
		l13.653-13.653L442.733,18.2L429.08,31.853z"/>
	<path d="M178.2,108.653c-5.12,0-8.533-3.413-8.533-8.533c0-14.507-11.093-25.6-25.6-25.6c-5.12,0-8.533-3.413-8.533-8.533
		s3.413-8.533,8.533-8.533c14.507,0,25.6-11.093,25.6-25.6c0-5.12,3.413-8.533,8.533-8.533c5.12,0,8.533,3.413,8.533,8.533
		c0,14.507,11.093,25.6,25.6,25.6c5.12,0,8.533,3.413,8.533,8.533s-3.413,8.533-8.533,8.533c-14.507,0-25.6,11.093-25.6,25.6
		C186.733,105.24,183.32,108.653,178.2,108.653z M169.667,65.987c3.413,2.56,5.973,5.12,8.533,8.533
		c2.56-3.413,5.12-5.973,8.533-8.533c-3.413-2.56-5.973-5.12-8.533-8.533C175.64,60.867,173.08,63.427,169.667,65.987z"/>
	<path d="M348.867,134.253c-5.12,0-8.533-3.413-8.533-8.533V91.587c0-5.12,3.413-8.533,8.533-8.533c5.12,0,8.533,3.413,8.533,8.533
		v34.133C357.4,130.84,353.987,134.253,348.867,134.253z"/>
	<path d="M365.933,117.187H331.8c-5.12,0-8.533-3.413-8.533-8.533c0-5.12,3.413-8.533,8.533-8.533h34.133
		c5.12,0,8.533,3.413,8.533,8.533C374.467,113.773,371.053,117.187,365.933,117.187z"/>
	<path d="M109.933,125.72c0,5.12-3.413,8.533-8.533,8.533c-5.12,0-8.533-3.413-8.533-8.533s3.413-8.533,8.533-8.533
		C106.52,117.187,109.933,120.6,109.933,125.72"/>
	<path d="M41.667,40.387c0,5.12-3.413,8.533-8.533,8.533S24.6,45.507,24.6,40.387s3.413-8.533,8.533-8.533
		S41.667,35.267,41.667,40.387"/>
	<path d="M84.333,219.587c-5.12,0-8.533-3.413-8.533-8.533v-25.6c0-5.12,3.413-8.533,8.533-8.533s8.533,3.413,8.533,8.533v25.6
		C92.867,216.173,89.453,219.587,84.333,219.587z"/>
	<path d="M127,219.587c-5.12,0-8.533-3.413-8.533-8.533v-25.6c0-5.12,3.413-8.533,8.533-8.533s8.533,3.413,8.533,8.533v25.6
		C135.533,216.173,132.12,219.587,127,219.587z"/>
	<path d="M169.667,219.587c-5.12,0-8.533-3.413-8.533-8.533v-25.6c0-5.12,3.413-8.533,8.533-8.533c5.12,0,8.533,3.413,8.533,8.533
		v25.6C178.2,216.173,174.787,219.587,169.667,219.587z"/>
	<path d="M212.333,219.587c-5.12,0-8.533-3.413-8.533-8.533v-25.6c0-5.12,3.413-8.533,8.533-8.533c5.12,0,8.533,3.413,8.533,8.533
		v25.6C220.867,216.173,217.453,219.587,212.333,219.587z"/>
	<path d="M255,219.587c-5.12,0-8.533-3.413-8.533-8.533v-25.6c0-5.12,3.413-8.533,8.533-8.533s8.533,3.413,8.533,8.533v25.6
		C263.533,216.173,260.12,219.587,255,219.587z"/>
	<path d="M297.667,219.587c-5.12,0-8.533-3.413-8.533-8.533v-25.6c0-5.12,3.413-8.533,8.533-8.533s8.533,3.413,8.533,8.533v25.6
		C306.2,216.173,302.787,219.587,297.667,219.587z"/>
	<path d="M340.333,219.587c-5.12,0-8.533-3.413-8.533-8.533v-25.6c0-5.12,3.413-8.533,8.533-8.533c5.12,0,8.533,3.413,8.533,8.533
		v25.6C348.867,216.173,345.453,219.587,340.333,219.587z"/>
	<path d="M383,219.587c-5.12,0-8.533-3.413-8.533-8.533v-25.6c0-5.12,3.413-8.533,8.533-8.533c5.12,0,8.533,3.413,8.533,8.533v25.6
		C391.533,216.173,388.12,219.587,383,219.587z"/>
	<path d="M425.667,219.587c-5.12,0-8.533-3.413-8.533-8.533v-25.6c0-5.12,3.413-8.533,8.533-8.533s8.533,3.413,8.533,8.533v25.6
		C434.2,216.173,430.787,219.587,425.667,219.587z"/>
</g>
</svg>